<svg xmlns="http://www.w3.org/2000/svg" xmlns:xlink="http://www.w3.org/1999/xlink" width="500" zoomAndPan="magnify" viewBox="0 0 375 374.999991" height="500" preserveAspectRatio="xMidYMid meet" version="1.0"><defs><g/><clipPath id="202ea54159"><path d="M 74 130 L 151 130 L 151 206 L 74 206 Z M 74 130 " clip-rule="nonzero"/></clipPath><clipPath id="7e5c05a968"><path d="M 165.117188 168.214844 L 101.21875 232.117188 L 48.449219 179.347656 L 112.347656 115.445312 Z M 165.117188 168.214844 " clip-rule="nonzero"/></clipPath><clipPath id="c329331f2f"><path d="M 74.953125 205.613281 L 130.992188 202.34375 L 116.164062 187.515625 L 150.289062 153.386719 L 127.175781 130.273438 L 93.050781 164.398438 L 78.222656 149.574219 Z M 74.953125 205.613281 " clip-rule="nonzero"/></clipPath><clipPath id="59fe9b51ce"><path d="M 35 118 L 115 118 L 115 198 L 35 198 Z M 35 118 " clip-rule="nonzero"/></clipPath><clipPath id="b6ac0c6afc"><path d="M 20.058594 158.015625 L 87.25 90.824219 L 142.734375 146.308594 L 75.542969 213.5 Z M 20.058594 158.015625 " clip-rule="nonzero"/></clipPath><clipPath id="719985562d"><path d="M 114.867188 118.691406 L 55.941406 122.128906 L 71.53125 137.722656 L 35.648438 173.605469 L 59.953125 197.910156 L 95.835938 162.027344 L 111.429688 177.617188 Z M 114.867188 118.691406 " clip-rule="nonzero"/></clipPath></defs><g clip-path="url(#202ea54159)"><g clip-path="url(#7e5c05a968)"><g clip-path="url(#c329331f2f)"><path fill="#48a9a6" d="M 165.117188 168.214844 L 101.421875 231.910156 L 48.652344 179.140625 L 112.347656 115.445312 Z M 165.117188 168.214844 " fill-opacity="1" fill-rule="nonzero"/></g></g></g><g clip-path="url(#59fe9b51ce)"><g clip-path="url(#b6ac0c6afc)"><g clip-path="url(#719985562d)"><path fill="#b8f2e3" d="M 20.058594 158.015625 L 87.03125 91.039062 L 142.519531 146.527344 L 75.542969 213.5 Z M 20.058594 158.015625 " fill-opacity="1" fill-rule="nonzero"/></g></g></g><g fill="#262632" fill-opacity="1"><g transform="translate(125.356374, 193.464144)"><g><path d="M 25.796875 0.984375 C 21.234375 0.984375 16.820312 0.367188 12.5625 -0.859375 C 8.3125 -2.097656 4.894531 -3.707031 2.3125 -5.6875 L 6.84375 -15.734375 C 9.3125 -13.921875 12.25 -12.460938 15.65625 -11.359375 C 19.0625 -10.265625 22.46875 -9.71875 25.875 -9.71875 C 29.664062 -9.71875 32.46875 -10.28125 34.28125 -11.40625 C 36.09375 -12.539062 37 -14.039062 37 -15.90625 C 37 -17.28125 36.460938 -18.421875 35.390625 -19.328125 C 34.316406 -20.234375 32.941406 -20.957031 31.265625 -21.5 C 29.597656 -22.050781 27.332031 -22.660156 24.46875 -23.328125 C 20.070312 -24.367188 16.472656 -25.410156 13.671875 -26.453125 C 10.878906 -27.492188 8.476562 -29.164062 6.46875 -31.46875 C 4.46875 -33.78125 3.46875 -36.859375 3.46875 -40.703125 C 3.46875 -44.054688 4.375 -47.09375 6.1875 -49.8125 C 8 -52.53125 10.726562 -54.6875 14.375 -56.28125 C 18.03125 -57.875 22.492188 -58.671875 27.765625 -58.671875 C 31.453125 -58.671875 35.050781 -58.226562 38.5625 -57.34375 C 42.082031 -56.46875 45.160156 -55.207031 47.796875 -53.5625 L 43.671875 -43.421875 C 38.347656 -46.441406 33.019531 -47.953125 27.6875 -47.953125 C 23.945312 -47.953125 21.1875 -47.347656 19.40625 -46.140625 C 17.625 -44.929688 16.734375 -43.34375 16.734375 -41.375 C 16.734375 -39.394531 17.757812 -37.921875 19.8125 -36.953125 C 21.875 -35.992188 25.019531 -35.046875 29.25 -34.109375 C 33.644531 -33.066406 37.242188 -32.023438 40.046875 -30.984375 C 42.847656 -29.941406 45.25 -28.289062 47.25 -26.03125 C 49.257812 -23.78125 50.265625 -20.734375 50.265625 -16.890625 C 50.265625 -13.597656 49.34375 -10.59375 47.5 -7.875 C 45.664062 -5.15625 42.90625 -3 39.21875 -1.40625 C 35.539062 0.1875 31.066406 0.984375 25.796875 0.984375 Z M 25.796875 0.984375 "/></g></g></g><g fill="#262632" fill-opacity="1"><g transform="translate(173.801713, 193.464144)"><g><path d="M 77.125 -44.328125 L 61.0625 0 L 48.703125 0 L 38.734375 -27.53125 L 28.4375 0 L 16.0625 0 L 0.078125 -44.328125 L 12.203125 -44.328125 L 22.65625 -14.34375 L 33.546875 -44.328125 L 44.421875 -44.328125 L 54.96875 -14.34375 L 65.765625 -44.328125 Z M 77.125 -44.328125 "/></g></g></g><g fill="#262632" fill-opacity="1"><g transform="translate(246.882528, 193.464144)"><g><path d="M 23.8125 -45 C 30.675781 -45 35.945312 -43.363281 39.625 -40.09375 C 43.3125 -36.820312 45.15625 -31.890625 45.15625 -25.296875 L 45.15625 0 L 33.125 0 L 33.125 -5.515625 C 30.707031 -1.398438 26.203125 0.65625 19.609375 0.65625 C 16.203125 0.65625 13.25 0.0820312 10.75 -1.0625 C 8.25 -2.21875 6.335938 -3.8125 5.015625 -5.84375 C 3.703125 -7.882812 3.046875 -10.191406 3.046875 -12.765625 C 3.046875 -16.890625 4.597656 -20.132812 7.703125 -22.5 C 10.804688 -24.863281 15.597656 -26.046875 22.078125 -26.046875 L 32.296875 -26.046875 C 32.296875 -28.847656 31.441406 -31.003906 29.734375 -32.515625 C 28.035156 -34.023438 25.484375 -34.78125 22.078125 -34.78125 C 19.722656 -34.78125 17.40625 -34.40625 15.125 -33.65625 C 12.84375 -32.914062 10.90625 -31.914062 9.3125 -30.65625 L 4.703125 -39.640625 C 7.117188 -41.335938 10.015625 -42.65625 13.390625 -43.59375 C 16.765625 -44.53125 20.238281 -45 23.8125 -45 Z M 22.828125 -8 C 25.023438 -8 26.972656 -8.503906 28.671875 -9.515625 C 30.378906 -10.535156 31.585938 -12.035156 32.296875 -14.015625 L 32.296875 -18.546875 L 23.484375 -18.546875 C 18.210938 -18.546875 15.578125 -16.8125 15.578125 -13.34375 C 15.578125 -11.695312 16.222656 -10.394531 17.515625 -9.4375 C 18.804688 -8.476562 20.578125 -8 22.828125 -8 Z M 22.828125 -8 "/></g></g></g><g fill="#262632" fill-opacity="1"><g transform="translate(293.597628, 193.464144)"><g><path d="M 32.140625 -45 C 36.253906 -45 40 -44.050781 43.375 -42.15625 C 46.757812 -40.257812 49.410156 -37.59375 51.328125 -34.15625 C 53.253906 -30.71875 54.21875 -26.722656 54.21875 -22.171875 C 54.21875 -17.609375 53.253906 -13.609375 51.328125 -10.171875 C 49.410156 -6.742188 46.757812 -4.082031 43.375 -2.1875 C 40 -0.289062 36.253906 0.65625 32.140625 0.65625 C 26.484375 0.65625 22.03125 -1.128906 18.78125 -4.703125 L 18.78125 15.984375 L 5.9375 15.984375 L 5.9375 -44.328125 L 18.21875 -44.328125 L 18.21875 -39.21875 C 21.394531 -43.070312 26.035156 -45 32.140625 -45 Z M 29.90625 -9.890625 C 33.207031 -9.890625 35.914062 -11 38.03125 -13.21875 C 40.144531 -15.445312 41.203125 -18.429688 41.203125 -22.171875 C 41.203125 -25.898438 40.144531 -28.878906 38.03125 -31.109375 C 35.914062 -33.335938 33.207031 -34.453125 29.90625 -34.453125 C 26.613281 -34.453125 23.910156 -33.335938 21.796875 -31.109375 C 19.679688 -28.878906 18.625 -25.898438 18.625 -22.171875 C 18.625 -18.429688 19.679688 -15.445312 21.796875 -13.21875 C 23.910156 -11 26.613281 -9.890625 29.90625 -9.890625 Z M 29.90625 -9.890625 "/></g></g></g></svg>